<?xml version="1.0" encoding="UTF-8"?>
<svg width="20px" height="29px" viewBox="0 0 20 29" version="1.1" xmlns="http://www.w3.org/2000/svg" xmlns:xlink="http://www.w3.org/1999/xlink">
    <title>scroll-down-icon</title>
    <g id="Page-1" stroke="none" stroke-width="1" fill="none" fill-rule="evenodd">
        <g id="goobiglass" transform="translate(-157.000000, -681.000000)" fill="#FFFFFF" fill-rule="nonzero">
            <g id="scroll-down-icon" transform="translate(157.000000, 681.000000)">
                <path d="M24.0425159,13.5405834 L15.4179806,4.93843287 C14.8917761,4.41359416 14.0383783,4.41359416 13.5121739,4.93843287 C12.9858616,5.4633791 12.9858616,6.31434684 13.5121739,6.83929308 L19.8362222,13.1469275 L-3.19710867,13.1469275 C-3.94129826,13.1469275 -4.54480383,13.7487554 -4.54480383,14.4910135 C-4.54480383,15.233164 -3.94129826,15.8350995 -3.19710867,15.8350995 L19.8362222,15.8350995 L13.5123895,22.1427339 C12.9860772,22.6676802 12.9860772,23.5186479 13.5123895,24.0435942 C13.7754378,24.3058522 14.1204192,24.4372501 14.4652928,24.4372501 C14.8101664,24.4372501 15.15504,24.3058522 15.4181962,24.0435942 L24.0425159,15.4414436 C24.5688281,14.9164974 24.5688281,14.0655296 24.0425159,13.5405834 Z" id="Path" transform="translate(9.946223, 14.491027) rotate(90.000000) translate(-9.946223, -14.491027) "></path>
            </g>
        </g>
    </g>
</svg>